{
    "asset" : {
        "generator" : "Khronos glTF Blender I/O v1.1.46",
        "version" : "2.0"
    },
    "scene" : 0,
    "scenes" : [
        {
            "name" : "Scene",
            "nodes" : [
                0,
                1
            ]
        }
    ],
    "nodes" : [
        {
            "name" : "null",
            "rotation" : [
                0.7071068286895752,
                0,
                0,
                0.7071067094802856
            ],
            "scale" : [
                0.009999999776482582,
                0.010000000707805157,
                0.010000000707805157
            ]
        },
        {
            "mesh" : 0,
            "name" : "galinha_azul",
            "rotation" : [
                0.38752827048301697,
                0,
                -0.9218578934669495,
                -1.5247447038291284e-07
            ],
            "scale" : [
                0.22903063893318176,
                0.19882915914058685,
                0.007033817004412413
            ],
            "translation" : [
                1.9861706495285034,
                0.286355584859848,
                0.5783455967903137
            ]
        }
    ],
    "materials" : [
        {
            "doubleSided" : true,
            "emissiveFactor" : [
                0,
                0,
                0
            ],
            "name" : "azul2.001",
            "pbrMetallicRoughness" : {
                "baseColorFactor" : [
                    0.028796875849366188,
                    0.20385897159576416,
                    0.8000000715255737,
                    1
                ],
                "metallicFactor" : 0,
                "roughnessFactor" : 0.5
            }
        },
        {
            "doubleSided" : true,
            "emissiveFactor" : [
                0,
                0,
                0
            ],
            "name" : "amarelo.001",
            "pbrMetallicRoughness" : {
                "baseColorFactor" : [
                    0.8000000715255737,
                    0.5380874872207642,
                    0.14627453684806824,
                    1
                ],
                "metallicFactor" : 0,
                "roughnessFactor" : 0.5
            }
        },
        {
            "doubleSided" : true,
            "emissiveFactor" : [
                0,
                0,
                0
            ],
            "name" : "azul.001",
            "pbrMetallicRoughness" : {
                "baseColorFactor" : [
                    0.025653444230556488,
                    0.19432252645492554,
                    0.3757493197917938,
                    1
                ],
                "metallicFactor" : 0,
                "roughnessFactor" : 0.5
            }
        },
        {
            "doubleSided" : true,
            "emissiveFactor" : [
                0,
                0,
                0
            ],
            "name" : "verem.galinha.001",
            "pbrMetallicRoughness" : {
                "baseColorFactor" : [
                    0.8000000715255737,
                    0.02926717884838581,
                    0,
                    1
                ],
                "metallicFactor" : 0,
                "roughnessFactor" : 0.5
            }
        },
        {
            "doubleSided" : true,
            "emissiveFactor" : [
                0,
                0,
                0
            ],
            "name" : "preto.001",
            "pbrMetallicRoughness" : {
                "baseColorFactor" : [
                    0,
                    0,
                    0,
                    1
                ],
                "metallicFactor" : 0,
                "roughnessFactor" : 0.5
            }
        }
    ],
    "meshes" : [
        {
            "name" : "Sphere.001",
            "primitives" : [
                {
                    "attributes" : {
                        "POSITION" : 0,
                        "NORMAL" : 1,
                        "TEXCOORD_0" : 2
                    },
                    "indices" : 3,
                    "material" : 0
                },
                {
                    "attributes" : {
                        "POSITION" : 4,
                        "NORMAL" : 5,
                        "TEXCOORD_0" : 6
                    },
                    "indices" : 7,
                    "material" : 1
                },
                {
                    "attributes" : {
                        "POSITION" : 8,
                        "NORMAL" : 9,
                        "TEXCOORD_0" : 10
                    },
                    "indices" : 11,
                    "material" : 2
                },
                {
                    "attributes" : {
                        "POSITION" : 12,
                        "NORMAL" : 13,
                        "TEXCOORD_0" : 14
                    },
                    "indices" : 15,
                    "material" : 3
                },
                {
                    "attributes" : {
                        "POSITION" : 16,
                        "NORMAL" : 17,
                        "TEXCOORD_0" : 18
                    },
                    "indices" : 19,
                    "material" : 4
                }
            ]
        }
    ],
    "accessors" : [
        {
            "bufferView" : 0,
            "componentType" : 5126,
            "count" : 1534,
            "max" : [
                0.9779427647590637,
                0.7145413160324097,
                84.23321533203125
            ],
            "min" : [
                -0.7216547727584839,
                -0.6840163469314575,
                -0.317047119140625
            ],
            "type" : "VEC3"
        },
        {
            "bufferView" : 1,
            "componentType" : 5126,
            "count" : 1534,
            "type" : "VEC3"
        },
        {
            "bufferView" : 2,
            "componentType" : 5126,
            "count" : 1534,
            "type" : "VEC2"
        },
        {
            "bufferView" : 3,
            "componentType" : 5123,
            "count" : 5718,
            "type" : "SCALAR"
        },
        {
            "bufferView" : 4,
            "componentType" : 5126,
            "count" : 1283,
            "max" : [
                0.5316543579101562,
                1.3366429805755615,
                67.5385971069336
            ],
            "min" : [
                -1.8109030723571777,
                -0.1152423769235611,
                17.181793212890625
            ],
            "type" : "VEC3"
        },
        {
            "bufferView" : 5,
            "componentType" : 5126,
            "count" : 1283,
            "type" : "VEC3"
        },
        {
            "bufferView" : 6,
            "componentType" : 5126,
            "count" : 1283,
            "type" : "VEC2"
        },
        {
            "bufferView" : 7,
            "componentType" : 5123,
            "count" : 3696,
            "type" : "SCALAR"
        },
        {
            "bufferView" : 8,
            "componentType" : 5126,
            "count" : 1021,
            "max" : [
                2.1410040855407715,
                1.125528335571289,
                83.94778442382812
            ],
            "min" : [
                -1.514098048210144,
                -1.3553428649902344,
                -0.19570159912109375
            ],
            "type" : "VEC3"
        },
        {
            "bufferView" : 9,
            "componentType" : 5126,
            "count" : 1021,
            "type" : "VEC3"
        },
        {
            "bufferView" : 10,
            "componentType" : 5126,
            "count" : 1021,
            "type" : "VEC2"
        },
        {
            "bufferView" : 11,
            "componentType" : 5123,
            "count" : 5310,
            "type" : "SCALAR"
        },
        {
            "bufferView" : 12,
            "componentType" : 5126,
            "count" : 1677,
            "max" : [
                -0.3740841746330261,
                -0.7941756844520569,
                45.70045471191406
            ],
            "min" : [
                -1.3740895986557007,
                -1.6203222274780273,
                41.70595169067383
            ],
            "type" : "VEC3"
        },
        {
            "bufferView" : 13,
            "componentType" : 5126,
            "count" : 1677,
            "type" : "VEC3"
        },
        {
            "bufferView" : 14,
            "componentType" : 5126,
            "count" : 1677,
            "type" : "VEC2"
        },
        {
            "bufferView" : 15,
            "componentType" : 5123,
            "count" : 8640,
            "type" : "SCALAR"
        },
        {
            "bufferView" : 16,
            "componentType" : 5126,
            "count" : 1118,
            "max" : [
                -1.1095472574234009,
                -0.4658682942390442,
                64.42958068847656
            ],
            "min" : [
                -1.3652067184448242,
                -0.6847131252288818,
                26.470273971557617
            ],
            "type" : "VEC3"
        },
        {
            "bufferView" : 17,
            "componentType" : 5126,
            "count" : 1118,
            "type" : "VEC3"
        },
        {
            "bufferView" : 18,
            "componentType" : 5126,
            "count" : 1118,
            "type" : "VEC2"
        },
        {
            "bufferView" : 19,
            "componentType" : 5123,
            "count" : 5760,
            "type" : "SCALAR"
        }
    ],
    "bufferViews" : [
        {
            "buffer" : 0,
            "byteLength" : 18408,
            "byteOffset" : 0
        },
        {
            "buffer" : 0,
            "byteLength" : 18408,
            "byteOffset" : 18408
        },
        {
            "buffer" : 0,
            "byteLength" : 12272,
            "byteOffset" : 36816
        },
        {
            "buffer" : 0,
            "byteLength" : 11436,
            "byteOffset" : 49088
        },
        {
            "buffer" : 0,
            "byteLength" : 15396,
            "byteOffset" : 60524
        },
        {
            "buffer" : 0,
            "byteLength" : 15396,
            "byteOffset" : 75920
        },
        {
            "buffer" : 0,
            "byteLength" : 10264,
            "byteOffset" : 91316
        },
        {
            "buffer" : 0,
            "byteLength" : 7392,
            "byteOffset" : 101580
        },
        {
            "buffer" : 0,
            "byteLength" : 12252,
            "byteOffset" : 108972
        },
        {
            "buffer" : 0,
            "byteLength" : 12252,
            "byteOffset" : 121224
        },
        {
            "buffer" : 0,
            "byteLength" : 8168,
            "byteOffset" : 133476
        },
        {
            "buffer" : 0,
            "byteLength" : 10620,
            "byteOffset" : 141644
        },
        {
            "buffer" : 0,
            "byteLength" : 20124,
            "byteOffset" : 152264
        },
        {
            "buffer" : 0,
            "byteLength" : 20124,
            "byteOffset" : 172388
        },
        {
            "buffer" : 0,
            "byteLength" : 13416,
            "byteOffset" : 192512
        },
        {
            "buffer" : 0,
            "byteLength" : 17280,
            "byteOffset" : 205928
        },
        {
            "buffer" : 0,
            "byteLength" : 13416,
            "byteOffset" : 223208
        },
        {
            "buffer" : 0,
            "byteLength" : 13416,
            "byteOffset" : 236624
        },
        {
            "buffer" : 0,
            "byteLength" : 8944,
            "byteOffset" : 250040
        },
        {
            "buffer" : 0,
            "byteLength" : 11520,
            "byteOffset" : 258984
        }
    ],
    "buffers" : [
        {
            "byteLength" : 270504,
            "uri" : "data:application/octet-stream;base64,"
        }
    ]
}
