{
    "asset" : {
        "generator" : "Khronos glTF Blender I/O v1.1.46",
        "version" : "2.0"
    },
    "scene" : 0,
    "scenes" : [
        {
            "name" : "Scene",
            "nodes" : [
                1
            ]
        }
    ],
    "nodes" : [
        {
            "mesh" : 0,
            "name" : "grp1",
            "rotation" : [
                -0.5,
                -0.5,
                0.5,
                0.5
            ],
            "translation" : [
                0,
                0,
                -5.620500087738037
            ]
        },
        {
            "children" : [
                0
            ],
            "name" : "null",
            "rotation" : [
                0.7071068286895752,
                0,
                0,
                0.7071067094802856
            ],
            "scale" : [
                0.009999999776482582,
                0.010000000707805157,
                0.010000000707805157
            ]
        }
    ],
    "materials" : [
        {
            "emissiveFactor" : [
                0,
                0,
                0
            ],
            "name" : "Mat",
            "pbrMetallicRoughness" : {
                "baseColorFactor" : [
                    0.800000011920929,
                    0.800000011920929,
                    0.800000011920929,
                    1
                ],
                "metallicFactor" : 0.5,
                "roughnessFactor" : 0.5
            }
        }
    ],
    "meshes" : [
        {
            "name" : "Mesh_0",
            "primitives" : [
                {
                    "attributes" : {
                        "POSITION" : 0,
                        "NORMAL" : 1,
                        "TEXCOORD_0" : 2
                    },
                    "indices" : 3,
                    "material" : 0
                }
            ]
        }
    ],
    "accessors" : [
        {
            "bufferView" : 0,
            "componentType" : 5126,
            "count" : 6246,
            "max" : [
                72.22309875488281,
                332.75299072265625,
                484.0400085449219
            ],
            "min" : [
                -72.22100067138672,
                1.528290033340454,
                -277.9590148925781
            ],
            "type" : "VEC3"
        },
        {
            "bufferView" : 1,
            "componentType" : 5126,
            "count" : 6246,
            "type" : "VEC3"
        },
        {
            "bufferView" : 2,
            "componentType" : 5126,
            "count" : 6246,
            "type" : "VEC2"
        },
        {
            "bufferView" : 3,
            "componentType" : 5123,
            "count" : 6246,
            "type" : "SCALAR"
        }
    ],
    "bufferViews" : [
        {
            "buffer" : 0,
            "byteLength" : 74952,
            "byteOffset" : 0
        },
        {
            "buffer" : 0,
            "byteLength" : 74952,
            "byteOffset" : 74952
        },
        {
            "buffer" : 0,
            "byteLength" : 49968,
            "byteOffset" : 149904
        },
        {
            "buffer" : 0,
            "byteLength" : 12492,
            "byteOffset" : 199872
        }
    ],
    "buffers" : [
        {
            "byteLength" : 212364,
            "uri" : "data:application/octet-stream;base64,"
        }
    ]
}
