{
  "accessors": [
    {
      "bufferView": 2,
      "componentType": 5126,
      "count": 65532,
      "max": [
        4.6636500358581543,
        -0.46053099632263184,
        0.25922799110412598
      ],
      "min": [
        -3.9513380527496338,
        -3.307960033416748,
        -2.6524980068206787
      ],
      "type": "VEC3"
    },
    {
      "bufferView": 2,
      "byteOffset": 786384,
      "componentType": 5126,
      "count": 65532,
      "max": [
        0.99999988079071045,
        0.99999111890792847,
        0.99999910593032837
      ],
      "min": [
        -0.99999833106994629,
        -1,
        -0.99999666213989258
      ],
      "type": "VEC3"
    },
    {
      "bufferView": 1,
      "componentType": 5126,
      "count": 65532,
      "max": [
        0.99910402297973633,
        0.99962401390075684
      ],
      "min": [
        0.00031900001340545714,
        0.00049200002104043961
      ],
      "type": "VEC2"
    },
    {
      "bufferView": 0,
      "componentType": 5125,
      "count": 286131,
      "max": [
        65531
      ],
      "min": [
        0
      ],
      "type": "SCALAR"
    },
    {
      "bufferView": 2,
      "byteOffset": 1572768,
      "componentType": 5126,
      "count": 65532,
      "max": [
        4.6635031700134277,
        -0.43979799747467041,
        0.26124900579452515
      ],
      "min": [
        -3.9580709934234619,
        -3.3252971172332764,
        -2.6543478965759277
      ],
      "type": "VEC3"
    },
    {
      "bufferView": 2,
      "byteOffset": 2359152,
      "componentType": 5126,
      "count": 65532,
      "max": [
        0.99999821186065674,
        0.99999123811721802,
        0.99999785423278809
      ],
      "min": [
        -0.99999988079071045,
        -1,
        -0.99999922513961792
      ],
      "type": "VEC3"
    },
    {
      "bufferView": 1,
      "byteOffset": 524256,
      "componentType": 5126,
      "count": 65532,
      "max": [
        0.99928700923919678,
        0.99960601329803467
      ],
      "min": [
        0.00030300000798888505,
        0.0013569999719038606
      ],
      "type": "VEC2"
    },
    {
      "bufferView": 0,
      "byteOffset": 1144524,
      "componentType": 5125,
      "count": 282342,
      "max": [
        65531
      ],
      "min": [
        0
      ],
      "type": "SCALAR"
    },
    {
      "bufferView": 2,
      "byteOffset": 3145536,
      "componentType": 5126,
      "count": 65532,
      "max": [
        4.670708179473877,
        -0.43821001052856445,
        0.25970900058746338
      ],
      "min": [
        -3.9588770866394043,
        -3.3203849792480469,
        -2.6616079807281494
      ],
      "type": "VEC3"
    },
    {
      "bufferView": 2,
      "byteOffset": 3931920,
      "componentType": 5126,
      "count": 65532,
      "max": [
        0.9999997615814209,
        0.99999213218688965,
        0.99999785423278809
      ],
      "min": [
        -0.99999898672103882,
        -1,
        -0.99999088048934937
      ],
      "type": "VEC3"
    },
    {
      "bufferView": 1,
      "byteOffset": 1048512,
      "componentType": 5126,
      "count": 65532,
      "max": [
        0.99969202280044556,
        0.99970102310180664
      ],
      "min": [
        0.000295000005280599,
        0.00052399997366592288
      ],
      "type": "VEC2"
    },
    {
      "bufferView": 0,
      "byteOffset": 2273892,
      "componentType": 5125,
      "count": 269823,
      "max": [
        65531
      ],
      "min": [
        0
      ],
      "type": "SCALAR"
    },
    {
      "bufferView": 2,
      "byteOffset": 4718304,
      "componentType": 5126,
      "count": 65532,
      "max": [
        4.6758928298950195,
        -0.44506499171257019,
        0.25665101408958435
      ],
      "min": [
        -3.9570341110229492,
        -3.6955571174621582,
        -2.6583189964294434
      ],
      "type": "VEC3"
    },
    {
      "bufferView": 2,
      "byteOffset": 5504688,
      "componentType": 5126,
      "count": 65532,
      "max": [
        0.9999997615814209,
        0.99998933076858521,
        0.99999797344207764
      ],
      "min": [
        -0.99999988079071045,
        -0.99999988079071045,
        -0.9999963641166687
      ],
      "type": "VEC3"
    },
    {
      "bufferView": 1,
      "byteOffset": 1572768,
      "componentType": 5126,
      "count": 65532,
      "max": [
        0.99946802854537964,
        0.99965602159500122
      ],
      "min": [
        0.00029799999902024865,
        0.0010550000006332994
      ],
      "type": "VEC2"
    },
    {
      "bufferView": 0,
      "byteOffset": 3353184,
      "componentType": 5125,
      "count": 245796,
      "max": [
        65531
      ],
      "min": [
        0
      ],
      "type": "SCALAR"
    },
    {
      "bufferView": 2,
      "byteOffset": 6291072,
      "componentType": 5126,
      "count": 65532,
      "max": [
        4.6758928298950195,
        -0.45744600892066956,
        0.26124900579452515
      ],
      "min": [
        -3.9588770866394043,
        -3.6250069141387939,
        -2.6605401039123535
      ],
      "type": "VEC3"
    },
    {
      "bufferView": 2,
      "byteOffset": 7077456,
      "componentType": 5126,
      "count": 65532,
      "max": [
        0.99999874830245972,
        0.99999290704727173,
        0.99996262788772583
      ],
      "min": [
        -0.99999523162841797,
        -0.9999995231628418,
        -0.99999666213989258
      ],
      "type": "VEC3"
    },
    {
      "bufferView": 1,
      "byteOffset": 2097024,
      "componentType": 5126,
      "count": 65532,
      "max": [
        0.9996190071105957,
        0.99968099594116211
      ],
      "min": [
        0.00040799999260343611,
        0.0013389999512583017
      ],
      "type": "VEC2"
    },
    {
      "bufferView": 0,
      "byteOffset": 4336368,
      "componentType": 5125,
      "count": 193356,
      "max": [
        65531
      ],
      "min": [
        0
      ],
      "type": "SCALAR"
    },
    {
      "bufferView": 2,
      "byteOffset": 7863840,
      "componentType": 5126,
      "count": 65534,
      "max": [
        4.6701641082763672,
        -0.066922999918460846,
        0.25665101408958435
      ],
      "min": [
        -3.954632043838501,
        -3.7362980842590332,
        -2.6616079807281494
      ],
      "type": "VEC3"
    },
    {
      "bufferView": 2,
      "byteOffset": 8650248,
      "componentType": 5126,
      "count": 65534,
      "max": [
        0.99999988079071045,
        0.99999290704727173,
        0.99999910593032837
      ],
      "min": [
        -0.99999922513961792,
        -0.99999988079071045,
        -0.99999421834945679
      ],
      "type": "VEC3"
    },
    {
      "bufferView": 1,
      "byteOffset": 2621280,
      "componentType": 5126,
      "count": 65534,
      "max": [
        0.99970299005508423,
        0.99970000982284546
      ],
      "min": [
        0.00029799999902024865,
        0.00065800000447779894
      ],
      "type": "VEC2"
    },
    {
      "bufferView": 0,
      "byteOffset": 5109792,
      "componentType": 5125,
      "count": 134706,
      "max": [
        65533
      ],
      "min": [
        0
      ],
      "type": "SCALAR"
    },
    {
      "bufferView": 2,
      "byteOffset": 9436656,
      "componentType": 5126,
      "count": 55022,
      "max": [
        4.6661229133605957,
        -0.44883599877357483,
        0.25996300578117371
      ],
      "min": [
        -3.9558579921722412,
        -3.68082594871521,
        -2.6576681137084961
      ],
      "type": "VEC3"
    },
    {
      "bufferView": 2,
      "byteOffset": 10096920,
      "componentType": 5126,
      "count": 55022,
      "max": [
        0.99999809265136719,
        0.99999123811721802,
        0.99999910593032837
      ],
      "min": [
        -0.99999523162841797,
        -0.99999988079071045,
        -0.99998766183853149
      ],
      "type": "VEC3"
    },
    {
      "bufferView": 1,
      "byteOffset": 3145552,
      "componentType": 5126,
      "count": 55022,
      "max": [
        0.99967902898788452,
        0.99970299005508423
      ],
      "min": [
        0.00029600001289509237,
        0.00065499998163431883
      ],
      "type": "VEC2"
    },
    {
      "bufferView": 0,
      "byteOffset": 5648616,
      "componentType": 5125,
      "count": 83892,
      "max": [
        55021
      ],
      "min": [
        0
      ],
      "type": "SCALAR"
    }
  ],
  "asset": {
    "extras": {
      "author": "Geoffrey Marchal (https://sketchfab.com/geoffreymarchal)",
      "license": "CC-BY-NC-4.0 (http://creativecommons.org/licenses/by-nc/4.0/)",
      "source": "https://sketchfab.com/3d-models/bench-in-royal-park-in-brussels-cc5d498552a14b95b32735715ee5091e",
      "title": "Bench in Royal park in Brussels"
    },
    "generator": "Sketchfab-8.49.0",
    "version": "2.0"
  },
  "bufferViews": [
    {
      "buffer": 0,
      "byteLength": 5984184,
      "byteOffset": 0,
      "name": "floatBufferViews",
      "target": 34963
    },
    {
      "buffer": 0,
      "byteLength": 3585728,
      "byteOffset": 5984184,
      "byteStride": 8,
      "name": "floatBufferViews",
      "target": 34962
    },
    {
      "buffer": 0,
      "byteLength": 10757184,
      "byteOffset": 9569912,
      "byteStride": 12,
      "name": "floatBufferViews",
      "target": 34962
    }
  ],
  "buffers": [
    {
      "byteLength": 20327096,
      "uri": "scene.bin"
    }
  ],
  "images": [
    {
      "uri": "textures/Bench_-_par_royal_-_CleanUp_-_LowPoly_baseColor.jpeg"
    }
  ],
  "materials": [
    {
      "doubleSided": true,
      "name": "Bench_-_par_royal_-_CleanUp_-_LowPoly",
      "pbrMetallicRoughness": {
        "baseColorFactor": [
          1,
          1,
          1,
          1
        ],
        "baseColorTexture": {
          "index": 0,
          "texCoord": 0
        },
        "metallicFactor": 0,
        "roughnessFactor": 1
      }
    }
  ],
  "meshes": [
    {
      "primitives": [
        {
          "attributes": {
            "NORMAL": 1,
            "POSITION": 0,
            "TEXCOORD_0": 2
          },
          "indices": 3,
          "material": 0,
          "mode": 4
        }
      ]
    },
    {
      "primitives": [
        {
          "attributes": {
            "NORMAL": 5,
            "POSITION": 4,
            "TEXCOORD_0": 6
          },
          "indices": 7,
          "material": 0,
          "mode": 4
        }
      ]
    },
    {
      "primitives": [
        {
          "attributes": {
            "NORMAL": 9,
            "POSITION": 8,
            "TEXCOORD_0": 10
          },
          "indices": 11,
          "material": 0,
          "mode": 4
        }
      ]
    },
    {
      "primitives": [
        {
          "attributes": {
            "NORMAL": 13,
            "POSITION": 12,
            "TEXCOORD_0": 14
          },
          "indices": 15,
          "material": 0,
          "mode": 4
        }
      ]
    },
    {
      "primitives": [
        {
          "attributes": {
            "NORMAL": 17,
            "POSITION": 16,
            "TEXCOORD_0": 18
          },
          "indices": 19,
          "material": 0,
          "mode": 4
        }
      ]
    },
    {
      "primitives": [
        {
          "attributes": {
            "NORMAL": 21,
            "POSITION": 20,
            "TEXCOORD_0": 22
          },
          "indices": 23,
          "material": 0,
          "mode": 4
        }
      ]
    },
    {
      "primitives": [
        {
          "attributes": {
            "NORMAL": 25,
            "POSITION": 24,
            "TEXCOORD_0": 26
          },
          "indices": 27,
          "material": 0,
          "mode": 4
        }
      ]
    }
  ],
  "nodes": [
    {
      "children": [
        1
      ],
      "name": "RootNode (gltf orientation matrix)",
      "rotation": [
        -0.70710678118654746,
        -0,
        -0,
        0.70710678118654757
      ]
    },
    {
      "children": [
        2
      ],
      "matrix": [
        0.99986696243286133,
        0.0027644499205052853,
        0.01607665978372097,
        0,
        0.016256716102361679,
        -0.08735145628452301,
        -0.99604487419128418,
        0,
        -0.0013491965364664793,
        0.99617373943328857,
        -0.087384775280952454,
        0,
        0.029342371970415115,
        -0.87312251329421997,
        -3.2049107551574707,
        1
      ],
      "name": "RootNode (model correction matrix)"
    },
    {
      "children": [
        3,
        4,
        5,
        6,
        7,
        8,
        9
      ],
      "name": "Bench_-_par_royal_-_CleanUp_-_LowPoly.obj.cleaner.materialmerger.gles"
    },
    {
      "mesh": 0,
      "name": ""
    },
    {
      "mesh": 1,
      "name": ""
    },
    {
      "mesh": 2,
      "name": ""
    },
    {
      "mesh": 3,
      "name": ""
    },
    {
      "mesh": 4,
      "name": ""
    },
    {
      "mesh": 5,
      "name": ""
    },
    {
      "mesh": 6,
      "name": ""
    }
  ],
  "samplers": [
    {
      "magFilter": 9729,
      "minFilter": 9987,
      "wrapS": 10497,
      "wrapT": 10497
    }
  ],
  "scene": 0,
  "scenes": [
    {
      "name": "OSG_Scene",
      "nodes": [
        0
      ]
    }
  ],
  "textures": [
    {
      "sampler": 0,
      "source": 0
    }
  ]
}

